<svg width="228" height="60" viewBox="0 0 228 60" fill="none" xmlns="http://www.w3.org/2000/svg">
<path d="M13.5634 53.0886H0.166992L0.167093 20.1299H8.24897V24.7161C8.24897 26.7542 9.90117 28.4064 11.9393 28.4064C13.9774 28.4064 15.6296 26.7542 15.6296 24.7161V20.1299H27.1586V24.4059C27.1586 26.6153 28.9497 28.4064 31.1591 28.4064C33.3686 28.4064 35.1597 26.6153 35.1597 24.4059V20.1299H43.0257L43.0257 53.0886H28.9942L28.9942 43.2011C28.9942 38.94 25.54 35.4857 21.2789 35.4857C17.0178 35.4857 13.5635 38.94 13.5635 43.2011L13.5634 53.0886Z" fill="#231E2B"/>
<path fill-rule="evenodd" clip-rule="evenodd" d="M19.6502 22.9528L19.6501 0.485165C24.2836 -0.00412494 26.9083 1.98684 29.4867 3.94265C32.5848 6.29258 35.6158 8.59174 41.9837 6.47694C38.1056 14.8273 28.2189 13.7478 24.5989 13.0352C24.5983 13.0361 24.5978 13.0371 24.5972 13.038C23.434 12.9038 23.2179 13.9886 23.2552 14.5478L23.2444 14.5519V22.9528H19.6502Z" fill="#231E2B"/>
<path d="M52.1238 20.3688H64.9778C68.0995 20.3688 70.5937 21.1339 72.4606 22.6641C74.3581 24.1638 75.3069 26.2296 75.3069 28.8616C75.3069 30.8509 74.7866 32.4577 73.746 33.6818C72.7361 34.8754 71.2517 35.6405 69.293 35.9772C69.0482 36.0384 68.8799 36.0996 68.7881 36.1608C68.6962 36.222 68.6503 36.3138 68.6503 36.4363C68.6503 36.5587 68.6962 36.6505 68.7881 36.7117C68.8799 36.7729 69.0482 36.8341 69.293 36.8953C73.4553 37.6911 75.5364 40.216 75.5364 44.47C75.5364 47.3162 74.5877 49.5198 72.6902 51.0806C70.7927 52.6415 68.2219 53.4219 64.9778 53.4219H52.1238V20.3688ZM64.5187 34.6C66.5386 34.6 68.0688 34.2021 69.1094 33.4064C70.1806 32.6107 70.7162 31.3253 70.7162 29.5502C70.7162 27.7751 70.1806 26.4897 69.1094 25.694C68.0688 24.8983 66.5386 24.5004 64.5187 24.5004H56.7145V34.6H64.5187ZM64.5187 49.2903C66.661 49.2903 68.2678 48.8924 69.3389 48.0967C70.4101 47.2703 70.9457 45.9084 70.9457 44.0109C70.9457 42.1134 70.4101 40.7668 69.3389 39.9711C68.2678 39.1448 66.661 38.7316 64.5187 38.7316H56.7145V49.2903H64.5187Z" fill="#231E2B"/>
<path d="M78.2801 36.8953C78.2801 33.4676 78.9687 30.453 80.3459 27.8516C81.7537 25.2502 83.743 23.2456 86.3138 21.8378C88.8846 20.3994 91.8686 19.6802 95.2657 19.6802C98.3874 19.6802 101.035 20.3076 103.208 21.5624C105.411 22.7866 107.064 24.3933 108.166 26.3826C109.267 28.3719 109.864 30.4989 109.956 32.7637H105.365C105.12 30.0399 104.156 27.8669 102.473 26.2449C100.79 24.6228 98.3109 23.8118 95.0362 23.8118C92.6184 23.8118 90.4914 24.3627 88.6551 25.4645C86.8188 26.5356 85.3957 28.0659 84.3857 30.0552C83.3758 32.0445 82.8708 34.3245 82.8708 36.8953C82.8708 39.4967 83.3605 41.7921 84.3398 43.7814C85.3498 45.7401 86.8035 47.2703 88.701 48.3721C90.5985 49.4433 92.8632 49.9789 95.4952 49.9789C98.5863 49.9789 100.882 49.2903 102.381 47.913C103.881 46.5358 104.631 44.6995 104.631 42.4042H92.5113V38.2726H109.221V41.532C109.221 45.4494 107.982 48.5251 105.503 50.7593C103.055 52.9934 99.6422 54.1105 95.2657 54.1105C91.8074 54.1105 88.7928 53.4066 86.222 51.9988C83.6512 50.5604 81.6772 48.5404 80.3 45.939C78.9534 43.3376 78.2801 40.3231 78.2801 36.8953Z" fill="#231E2B"/>
<path d="M119.8 52.6948H117.473L126.988 23.3723C127.601 21.4937 127.192 20.8402 124.17 20.8402L124.415 20.0235C127.927 20.0235 129.561 19.7376 130.174 18.88L130.664 19.0433L122.741 43.3835H123.068C127.519 33.9088 130.745 30.6825 133.441 30.6825C134.952 30.6825 135.769 31.6626 135.769 33.2145C135.769 36.5633 132.338 43.0568 130.174 48.325C129.969 48.9376 129.602 49.8361 129.602 50.367C129.602 50.9796 129.765 51.388 130.419 51.388C132.093 51.388 133.972 48.5701 135.36 45.4663H136.218C134.788 48.9785 132.216 52.9399 129.438 52.9399C127.846 52.9399 127.274 52.0414 127.274 50.8162C127.274 50.0811 127.642 49.1827 128.009 48.2842C130.296 42.4033 133.237 36.2775 133.237 34.0721C133.237 33.0512 132.91 32.5611 132.256 32.5611C130.337 32.5611 125.763 37.4618 119.8 52.6948ZM150.53 51.388C152.204 51.388 154.042 48.5701 155.471 45.4663H156.329C154.899 48.9785 152.286 52.9399 149.509 52.9399C147.916 52.9399 147.344 52.0414 147.344 50.8162C147.344 50.0811 147.753 49.1827 148.079 48.2842L150.407 41.8724H150.04C148.039 46.2014 143.873 53.0624 140.565 53.0624C138.237 53.0624 137.42 51.1021 137.42 48.325C137.42 41.3415 143.914 30.6825 149.345 30.6825C151.755 30.6825 152.898 32.4386 152.694 35.134H152.817L154.042 31.7443C154.94 31.7443 155.798 31.2134 156.247 30.5191L156.696 30.7233L150.285 48.325C150.08 48.9376 149.713 49.8361 149.713 50.367C149.713 50.9796 149.876 51.388 150.53 51.388ZM141.259 51.1021C143.955 51.1021 148.814 43.9144 150.448 39.3812C150.897 38.1561 151.387 36.6859 151.387 35.0523C151.387 33.337 150.856 32.1935 149.386 32.1935C145.18 32.1935 139.83 41.7091 139.83 48.0392C139.83 49.9994 140.197 51.1021 141.259 51.1021ZM162.136 53.2257C159.44 53.2257 157.929 50.8571 157.929 47.2224C157.929 39.9121 163.524 30.6008 168.915 30.6008C170.671 30.6008 171.978 31.7443 171.978 33.8271C171.978 35.9916 170.753 38.3194 169.405 38.3194C168.711 38.3194 168.302 37.7477 168.302 37.0942C168.302 35.5832 170.508 35.5832 170.508 33.4596C170.508 32.7244 170.099 31.9485 168.752 31.9485C164.178 31.9485 160.38 41.0556 160.38 46.814C160.38 49.4685 161.156 51.388 162.952 51.388C165.28 51.388 167.772 48.5292 169.65 44.7312H170.426C168.221 50.0403 165.158 53.2257 162.136 53.2257ZM183.937 51.1021C185.489 51.1021 187.082 48.8968 188.593 45.8338H189.451C187.735 49.4277 185.653 52.9399 182.876 52.9399C180.629 52.9399 179.772 50.4078 179.568 46.3647C179.486 45.1804 179.445 43.6694 179.527 42.3217C185.244 40.7698 187.817 36.3183 187.817 34.113C187.817 33.092 187.368 32.6836 186.715 32.6836C184.713 32.6836 179.118 37.5026 173.401 52.6948H171.114L180.629 23.3723C181.242 21.4937 180.834 20.8402 177.812 20.8402L178.057 20.0235C181.732 20.0235 183.039 19.8193 183.815 18.88L184.346 19.0433L176.423 43.3835H176.709C181.079 33.8679 185.203 30.805 187.776 30.805C189.41 30.805 190.268 31.9485 190.268 33.3779C190.268 36.0324 187.041 40.7698 181.773 42.24H181.732C181.732 43.3835 181.814 44.5678 181.936 45.9972C182.222 49.2643 182.631 51.1021 183.937 51.1021ZM195.718 53.2257C192.492 53.2257 190.328 51.0613 190.328 49.0601C190.328 48.1617 190.858 47.6716 191.553 47.6716C192.206 47.6716 192.369 48.1617 192.696 49.1827C193.268 50.9387 194.248 52.0414 196.249 52.0414C198.455 52.0414 199.557 50.367 199.557 48.1617C199.557 46.7323 199.026 45.5888 198.169 44.2003L196.943 42.0766C195.432 39.5854 194.697 38.1969 194.697 36.4C194.697 33.0103 197.434 30.6008 200.782 30.6008C203.559 30.6008 205.152 32.5203 205.152 33.8271C205.152 34.6847 204.54 35.1748 203.927 35.1748C203.274 35.1748 203.029 34.6031 202.783 33.8679C202.334 32.6836 201.722 31.7443 200.006 31.7443C198.087 31.7443 196.78 33.0103 196.78 35.2565C196.78 36.6042 197.352 38.0744 198.291 39.6263L199.476 41.7091C201.027 44.4045 201.64 45.4254 201.64 47.1407C201.64 50.7345 199.108 53.2257 195.718 53.2257Z" fill="#182232"/>
<path fill-rule="evenodd" clip-rule="evenodd" d="M227.33 22.6947L222.504 14.3354L212.851 14.3354L208.025 22.6947L212.851 31.054L222.504 31.054L227.33 22.6947ZM217.677 26.5374C219.8 26.5374 221.52 24.817 221.52 22.6948C221.52 20.5725 219.8 18.8521 217.677 18.8521C215.555 18.8521 213.835 20.5725 213.835 22.6948C213.835 24.817 215.555 26.5374 217.677 26.5374Z" fill="#9FA9FF"/>
</svg>
