<svg xmlns="http://www.w3.org/2000/svg" xml:space="preserve" style="enable-background:new 0 0 50 50" viewBox="0 0 50 50"><path d="M43.361 7.242c-1.284.516-37.728 16.147-37.728 16.147s-1.765.614-1.625 1.748 1.58 1.653 1.58 1.653l9.38 3.212s2.832 9.448 3.39 11.241c.558 1.796 1.004 1.838 1.004 1.838.518.23.992-.137.992-.137l6.061-5.622 9.448 7.369c2.554 1.134 3.483-1.228 3.483-1.228l6.509-33.925c.576-2.625-1.138-2.839-2.494-2.296z" style="fill:none;stroke:#000;stroke-width:3;stroke-miterlimit:10"/><path d="m15 30 24-16-17 20M20 43l2-9 4 3" style="fill:none;stroke:#000;stroke-width:3;stroke-linecap:round;stroke-linejoin:round;stroke-miterlimit:10"/></svg>