<svg width="279" height="44" viewBox="0 0 279 44" fill="none" xmlns="http://www.w3.org/2000/svg">
<rect x="0.814697" y="0.661377" width="43.1195" height="42.7064" rx="7.45465" fill="#212638"/>
<path d="M9.98511 16.0533L11.7431 12.2522H32.2218L34.1699 16.0533H9.98511Z" fill="white"/>
<path d="M15.4968 9.68641V10.9218H19.2979V8.26099L15.4968 9.68641Z" fill="white"/>
<path d="M19.2979 17.5263H15.4968V32.8734H13.1686V35.4866H21.8162V32.8734H19.2979V17.5263Z" fill="white"/>
<path d="M30.6063 18.1915L31.2073 17.1104L31.8625 18.1915L36.0704 24.891L31.224 27.5993L26.4725 24.891L30.6063 18.1915Z" fill="white"/>
<path d="M31.224 28.9297L27.0902 26.6965L30.9325 32.4379C31.0718 32.6459 31.3774 32.6467 31.5177 32.4394L35.4052 26.6965L31.224 28.9297Z" fill="white"/>
<path d="M31.2239 27.5123V17.9299V17.1255L36.0861 24.886L31.2239 27.5123Z" fill="#E2E2E2"/>
<path d="M31.259 32.7459V28.9485L35.3404 26.6061L31.259 32.7459Z" fill="#E2E2E2"/>
<path d="M62.0302 33.2548C55.5355 33.2548 53.1562 30.3933 53.0276 25.3132V24.7345H57.2717V25.3132C57.336 28.2712 58.7507 29.7502 62.0624 29.7502C64.9239 29.7502 66.21 28.2391 66.21 26.4385V26.2456C66.2422 23.802 63.5735 23.2554 60.7441 22.5802C57.3681 21.7443 53.7349 20.7476 53.7349 16.0212V15.8604C53.7349 12.4523 56.1785 9.49424 61.4515 9.49424C67.1103 9.49424 69.586 12.195 69.7146 16.4713V16.9857H65.6313V16.5035C65.4705 14.0599 64.313 12.8381 61.3872 12.8381C58.7507 12.8381 57.754 14.2206 57.754 15.8283V15.9247C57.754 18.2718 60.2618 18.722 63.0591 19.4615C66.5316 20.3296 70.1648 21.3263 70.1648 26.117V26.3742C70.1969 30.1682 67.3675 33.2548 62.0302 33.2548ZM81.3764 33.2548C75.8462 33.2548 72.7596 30.136 72.7596 24.4772V22.8696C72.7596 17.0179 76.3928 13.8991 81.4407 13.8991C86.2635 13.8991 89.4466 16.2784 89.8324 21.3906V21.7121H85.6526V21.3585C85.3633 18.5612 83.9164 17.3073 81.4407 17.3073C78.6756 17.3073 76.8751 19.2042 76.8751 22.8696V24.4129C76.8751 27.8211 78.547 29.7502 81.4085 29.7502C83.9486 29.7502 85.3633 28.432 85.6848 25.6347V25.2489H89.8324V25.699C89.5109 30.9077 86.2314 33.2548 81.3764 33.2548ZM99.2988 30.136C102.61 30.136 104.733 27.4352 104.733 24.7988V23.2876C104.025 23.8342 102.868 24.1879 101.26 24.5094C99.1702 24.8952 98.2699 25.1846 97.4983 25.7312C96.7909 26.2778 96.5015 26.8565 96.5015 27.7568V27.8211C96.5015 29.3001 97.434 30.136 99.2988 30.136ZM105.311 32.8047L104.861 29.3001C103.704 31.5829 101.389 33.2227 97.9163 33.2227C94.1544 33.2227 92.1931 31.39 92.1931 28.3677V28.2391C92.1931 26.2456 93.0291 24.7988 94.4438 23.8663C95.8907 22.9018 97.1124 22.6445 100.36 22.0658C103.511 21.5192 104.7 21.0691 104.7 19.5901V19.5579C104.7 17.9825 103.704 17.0179 101.035 17.0179C98.2378 17.0179 96.9195 18.304 96.8231 20.5225V20.9083H92.7719V20.4903C92.9969 16.5356 95.8907 13.8991 100.874 13.8991C106.437 13.8991 108.527 16.3105 108.527 20.1367V32.8047H105.311ZM121.19 17.7895H117.138L117.106 32.8047H113.312V17.7895H110.258V14.3171H113.312V13.449C113.312 8.9798 115.081 7.30788 119.196 7.30788H121.222V10.6196H119.743C117.492 10.6196 117.138 11.134 117.138 13.8991V14.3171H121.19V17.7895ZM134.094 17.7895H130.043L130.011 32.8047H126.217V17.7895H123.163V14.3171H126.217V13.449C126.217 8.9798 127.985 7.30788 132.101 7.30788H134.127V10.6196H132.648C130.397 10.6196 130.043 11.134 130.043 13.8991V14.3171H134.094V17.7895ZM143.956 33.2548C138.393 33.2548 135.275 30.136 135.275 24.4772V22.8696C135.275 17.05 138.94 13.8991 143.956 13.8991C149.068 13.8991 152.605 17.1143 152.605 22.8696V24.4772C152.605 30.136 149.132 33.2548 143.956 33.2548ZM143.956 29.7502C146.881 29.7502 148.586 27.8532 148.586 24.4129V22.8696C148.586 19.365 146.785 17.3073 143.988 17.3073C141.191 17.3073 139.358 19.2364 139.358 22.8696V24.4129C139.358 27.8211 141.062 29.7502 143.956 29.7502ZM159.878 32.8047H155.891V8.27245H159.878V32.8047ZM171.521 29.7181C174.414 29.7181 176.215 27.5317 176.215 24.1236V22.7732C176.215 19.4293 174.479 17.243 171.649 17.243C168.691 17.243 167.052 19.3007 167.052 22.8053V24.0593C167.052 27.8532 168.916 29.7181 171.521 29.7181ZM176.697 32.8047L176.247 29.075C175.379 31.4864 173.386 33.1584 170.299 33.1584C165.862 33.1584 162.968 30.0717 162.968 24.1236V22.7089C162.968 16.9536 166.023 13.9313 170.428 13.9313C173.225 13.9313 175.122 15.2174 176.119 17.3394V8.27245H179.977V32.8047H176.697ZM184.732 25.4418V22.9339H192.512V25.4418H184.732ZM212.552 29.2358V32.8047H197.408V9.88007H212.07V13.3204H201.299V19.4615H210.462V22.9661H201.299V29.2358H212.552ZM230.532 13.4168H224.455V32.8047H220.404V13.4168H214.552V9.88007H230.532V13.4168ZM246.539 32.8047V23.2233H237.472V32.8047H233.485V9.88007H237.472V19.4293H246.539V9.88007H250.494V32.8047H246.539ZM277.184 32.8047H260.176V29.8467C260.176 25.3453 263.97 23.3519 267.442 21.6478C270.4 20.201 273.101 18.9792 273.101 16.5999V16.4391C273.101 14.1242 271.718 12.9667 268.986 12.9667C266.028 12.9667 264.484 14.4779 264.484 17.1465V18.3683H260.433V16.9857C260.433 12.1307 263.552 9.52639 269.05 9.52639C274.387 9.52639 277.217 12.2915 277.217 16.2462V16.407C277.217 20.7154 273.583 22.6445 270.272 24.2843C267.539 25.699 264.999 26.8887 264.806 29.1072H277.184V32.8047Z" fill="#212638"/>
</svg>
